<?xml version="1.0" ?><svg id="Layer_1" style="enable-background:new 0 0 64 64;" version="1.1" viewBox="0 0 64 64" xml:space="preserve" xmlns="http://www.w3.org/2000/svg" xmlns:xlink="http://www.w3.org/1999/xlink"><style type="text/css">
	.st0{fill:#314A52;}
	.st1{fill-rule:evenodd;clip-rule:evenodd;fill:#040707;}
	.st2{fill:#F8981D;}
</style><g id="Amazon"><path class="st0" d="M35.9,36c1.2-1.3,2.1-3.5,2.1-7v-3h-3c-6,0-9,3-9,7c0,1.2,0.3,2.2,0.7,3H14.1C14,35.4,14,34.7,14,34   c0-8,6.5-12.5,14-14c6-1.2,9.2-1.2,10-1v-3c0-3.3-2.7-6-6-6h-0.9c-1.9,0-3.6,1.1-4.5,2.8l-1,2c-0.4,0.7-1.2,1.2-2,1.1l-6.7-0.7   c-0.5-0.1-0.9-0.5-0.9-1C16.5,5.3,24.8,2,33,2c8.5,0,15,2,15,12v18L35.9,36z"/><path class="st1" d="M28,33c0-1.5,0.5-2.6,1.5-3.5c1-0.9,2.8-1.5,5.5-1.5h1v1c0,3.9-1.1,5.4-2,6.1c-1,0.8-2.3,0.9-3.5,0.9   c-0.9,0-1.4-0.3-1.8-0.6C28.4,35.1,28,34.4,28,33z M23.8,13.9l-5.7-0.6c0.5-3.1,2.1-5.3,4.5-6.8C25.4,4.8,29.1,4,33,4   c4.2,0,7.4,0.5,9.6,1.9c2,1.3,3.4,3.6,3.4,8.1v2c0,6-2.4,11.3-6.1,15c0.1-0.6,0.1-1.3,0.1-2v-2c0-1.7-1.3-3-3-3h-2   c-3.3,0-6.1,0.8-8,2.5c-2,1.7-3,4-3,6.5c0,1,0.1,1.8,0.4,2.7c-4.2-0.8-7.2-3-7.2-5.7c0-0.6,0.2-1.3,0.5-1.9c2.1-3.2,6-5.2,10.7-6.2   c4.3-0.9,7-1.1,8.4-1c1.6,0,3.2-1.2,3.2-3.1V16c0-4.4-3.6-8-8-8h-0.9c-2.7,0-5.1,1.5-6.3,3.9L23.8,13.9z M33,0   c-4.3,0-8.9,0.9-12.4,3c-3.7,2.2-6.2,5.8-6.6,11c-0.1,1.6,1.2,2.9,2.6,3.1l6.7,0.7c1.7,0.2,3.3-0.7,4-2.2l1-2   c0.5-1,1.5-1.7,2.7-1.7H32c2.2,0,4,1.8,4,4v0.9c-1.8,0.1-4.6,0.3-8.4,1.1C19.7,19.6,12,24.6,12,34c0,4,1.4,7.5,4,10.1   c2.6,2.5,6.3,3.9,10.5,3.9c6,0,10.1-1.8,12.4-3.5c0.9,0.9,2.1,2.1,3.4,2.8c0.8,0.5,1.8,0.7,2.5,0.7c1.3,0,2.5-0.4,3.4-1.2l4.3-3.5   c1-0.8,1.5-2,1.5-3.3c0-1.2-0.5-2.3-1.4-3.1c-1.1-1-2.6-2.6-2.6-4.9V14c0-5.5-1.8-9.2-5.2-11.4C41.6,0.5,37.3,0,33,0z"/><path class="st2" d="M4,48.7C4,48.3,4.3,48,4.7,48c0.2,0,0.3,0.1,0.5,0.1c6,4.5,13.4,9.9,26.8,9.9c8.3,0,13.7-1.4,21.3-5.6   c0.4-0.2,0.9-0.4,1.4-0.4c0.7,0,1.2,0.6,1.2,1.2v0.1c0,0.4-0.2,0.8-0.5,1.1c-0.3,0.2-0.5,0.4-0.8,0.7C50.2,58.7,43.5,64,32,64   c-12.7,0-20.9-5.9-27.8-14.8C4.1,49.1,4,48.9,4,48.7z M59.5,48.5C59,48.3,57.6,48,56,48c-2.6,0-4.7,0.8-6.6,1.7   c-0.2,0.1-0.4,0.4-0.4,0.6c0,0.4,0.3,0.7,0.7,0.7h0c0.1,0,0.1,0,0.2,0c1.3-0.3,3.1-0.5,5.1-0.5c1.7,0,2.7,0.7,2.5,2.5   c-0.2,1.8-0.5,3.5-1.4,4.9C56,58,56,58.2,56,58.3c0,0.4,0.3,0.7,0.7,0.7c0.2,0,0.4-0.1,0.5-0.2c1.3-1.5,2.8-3.9,2.8-7.3   C60,49.5,59.7,48.5,59.5,48.5z"/></g></svg>