<?xml version="1.0" ?><svg id="Layer_1" style="enable-background:new 0 0 64 64;" version="1.1" viewBox="0 0 64 64" xml:space="preserve" xmlns="http://www.w3.org/2000/svg" xmlns:xlink="http://www.w3.org/1999/xlink"><style type="text/css">
	.st0{fill-rule:evenodd;clip-rule:evenodd;fill:#CCE490;}
	.st1{fill:#3DDC84;}
	.st2{fill:#314A52;}
</style><g id="Android"><path class="st0" d="M45,40c1.7,0,3-1.3,3-3c0-1.7-1.3-3-3-3c-1.7,0-3,1.3-3,3C42,38.7,43.3,40,45,40z M19,40c1.7,0,3-1.3,3-3   c0-1.7-1.3-3-3-3c-1.7,0-3,1.3-3,3C16,38.7,17.3,40,19,40z M62,50c-1-15.6-14.1-28-30-28C16.1,22,3,34.4,2,50H62z"/><path class="st1" d="M9.1,12.3c1-0.6,2.2-0.2,2.7,0.7L18,23.3l2.2,3.3l-1.9,1.1c-3.8,2.2-7,5.2-9.5,8.8c-0.2,0.4-0.3,0.8-0.3,1.2   c0,3.5,7,6.3,15.7,6.3c15.5,0,28-4.4,28-9.9c0-1.5-0.9-2.9-2.6-4.1h3.6l10,19h-13v3H0l0.1-2.1c0.7-10.3,6.2-19.2,14.3-24.6L8.4,15   C7.9,14.1,8.2,12.8,9.1,12.3z"/><path class="st2" d="M47.9,52H64l-0.1-2.1c-0.7-10.3-6.2-19.2-14.3-24.6L55.6,15c0.6-1,0.2-2.2-0.7-2.7S52.7,12,52.1,13L46,23.3   C41.8,21.2,37,20,31.9,20c-5.1,0-9.9,1.2-14.2,3.3l2,3.4l0,0.1C23.4,25,27.5,24,31.9,24C46,24,57.7,34.4,59.6,48H47.9V52z"/></g></svg>