<?xml version="1.0" ?><svg id="Layer_1" style="enable-background:new 0 0 64 64;" version="1.1" viewBox="0 0 64 64" xml:space="preserve" xmlns="http://www.w3.org/2000/svg" xmlns:xlink="http://www.w3.org/1999/xlink"><style type="text/css">
	.st0{fill-rule:evenodd;clip-rule:evenodd;fill:#FFF200;}
	.st1{fill-rule:evenodd;clip-rule:evenodd;fill:#57CEF3;}
	.st2{fill-rule:evenodd;clip-rule:evenodd;fill:#CCE490;}
	.st3{fill-rule:evenodd;clip-rule:evenodd;fill:#FF6C58;}
	.st4{fill:#4285F4;}
	.st5{fill:#F4B400;}
	.st6{fill-rule:evenodd;clip-rule:evenodd;fill:#DB4437;}
	.st7{fill:#0F9D58;}
	.st8{fill:#314A52;}
</style><g id="Google"><path class="st0" d="M15.5,24.8c-0.5,1.2-0.9,2.4-1.1,3.6c-0.7,3.6-0.3,7.4,1.2,10.8l-9.3,8C6.1,47.2,6.1,47.1,6,47   c-3.6-6.3-4.9-13.7-3.4-20.9c0.7-3.3,1.8-6.4,3.5-9.2L15.5,24.8z"/><path class="st1" d="M50.7,55.5c3.4-2.7,6.2-6.2,8.2-10.2c3-6,3.8-12.8,2.5-19.3H34v12h15c-0.2,0.7-0.5,1.3-0.8,2   c-1.6,3.3-4.2,5.9-7.3,7.7C44.6,50.6,48.2,53.5,50.7,55.5z"/><path class="st2" d="M42.1,46.9l9.7,7.6c-2.5,2.2-5.3,3.9-8.3,5.2c-6.7,2.8-14.2,3-21.1,0.7C15.5,58.1,9.7,53.3,6,47   c-0.2-0.4-0.5-0.8-0.7-1.3l9.8-7.6c0.4,1,0.8,1.9,1.3,2.8c2.2,3.8,5.7,6.6,9.8,8s8.6,1.3,12.7-0.4C40,48.2,41.1,47.6,42.1,46.9z"/><path class="st3" d="M15,26.1c1.2-3.3,3.2-6.2,6-8.3c3.5-2.7,7.8-4,12.1-3.7c4.4,0.3,8.5,2.1,11.6,5.2l8.5-8.5   c-5.1-5.1-12-8.2-19.3-8.7S19.5,3.8,13.7,8.2c-3.6,2.8-6.5,6.3-8.5,10.2L15,26.1z"/><path class="st4" d="M59.4,26h2c1.3,6.5,0.5,13.3-2.5,19.3c-2,4-4.8,7.5-8.2,10.2c-1.3-1-2.9-2.3-4.7-3.7c8.4-3.1,14-9.4,14-19.8   C60,29.9,59.8,27.9,59.4,26z M44.4,47.7c3.5-2.8,6-6.7,7-11.1l-3.9-0.9c-0.8,3.5-2.8,6.7-5.6,8.9c-0.8,0.6-1.6,1.2-2.5,1.6l3,2.9   C43.2,48.6,43.8,48.1,44.4,47.7z"/><path class="st5" d="M7.6,18.2L7.6,18.2c-1.4,2.6-2.5,5.4-3.1,8.3c-0.3,1.7-0.5,3.4-0.5,5c0,0.1,0,0.3,0,0.4c0,0.2,0,0.3,0,0.5   c0,0.2,0,0.3,0,0.5c0.2,5.1,1.8,9.2,4.4,12.4L7.7,46c0,0,0,0,0,0l-3.1,2.6c-0.1-0.2-0.3-0.4-0.4-0.6c-3.9-6.7-5.2-14.6-3.7-22.2   c0.7-3.6,2-7,3.9-10.1l1.6,1.3c0,0,0,0,0,0L7.6,18.2C7.6,18.2,7.6,18.2,7.6,18.2z M12.4,28.1c-0.8,4.3-0.3,8.7,1.6,12.5l3.2-2.7   c-1.1-2.9-1.4-6-0.8-9c0.2-0.9,0.4-1.8,0.8-2.7l-3.2-2.7C13.2,25,12.7,26.5,12.4,28.1z"/><path class="st6" d="M16.7,27.4c1-3.2,2.9-6,5.6-8.1c3.1-2.4,6.9-3.5,10.8-3.3s7.5,1.9,10.3,4.7l1.3-4.2c-3.2-2.6-7.2-4.2-11.3-4.5   c-4.8-0.3-9.6,1.1-13.5,4.1c-2.9,2.2-5.2,5.2-6.5,8.6L16.7,27.4z"/><path class="st7" d="M53.4,55.8c-2.7,2.4-5.8,4.4-9.2,5.8c-7.2,3-15.2,3.2-22.5,0.7C14.4,59.8,8.2,54.7,4.3,48   c-0.2-0.3-0.4-0.7-0.6-1l1.6-1.2c0,0,0,0,0,0l2.1-1.7c4.8,6.9,14,9.9,24.5,9.9c5.7,0,11.1-0.9,15.5-2.8L53.4,55.8z M39.7,50.5   c1.5-0.6,2.8-1.4,4.1-2.3l-3.3-2.6c-0.7,0.5-1.5,0.8-2.3,1.2c-3.6,1.5-7.6,1.6-11.3,0.4s-6.8-3.8-8.7-7.2c-0.6-1-1-2.1-1.4-3.1   l-3.3,2.6c0.4,0.9,0.8,1.7,1.2,2.6c2.4,4.2,6.3,7.4,10.9,8.9C30.2,52.5,35.2,52.3,39.7,50.5z"/><path class="st8" d="M6.9,19.7l-3.2-2.5c2.1-4.1,5.2-7.7,8.9-10.6c6.2-4.7,13.8-7.1,21.6-6.5s15,3.8,20.5,9.3l1.4,1.4L44.7,22.1   l-1.4-1.4c-0.5-0.5-1-0.9-1.5-1.3l2.8-2.8l0,0l5.7-5.7c-4.6-4-10.4-6.4-16.5-6.8C27.1,3.6,20.3,5.7,15,9.8   C11.5,12.4,8.7,15.8,6.9,19.7z M63,24H32v16h13.9c0.7-1.2,1.3-2.6,1.6-4H36v-8h23.7c0.8,5.6-0.1,11.3-2.6,16.4   c-1.7,3.4-4,6.4-6.9,8.9l3.2,2.5c3-2.7,5.5-5.9,7.3-9.6c3.1-6.4,4.1-13.6,2.7-20.6L63,24z"/></g></svg>