<?xml version="1.0" ?><svg id="Layer_1" style="enable-background:new 0 0 64 64;" version="1.1" viewBox="0 0 64 64" xml:space="preserve" xmlns="http://www.w3.org/2000/svg" xmlns:xlink="http://www.w3.org/1999/xlink"><style type="text/css">
	.st0{fill:#FF6C58;}
	.st1{fill-rule:evenodd;clip-rule:evenodd;fill:#E60023;}
	.st2{fill-rule:evenodd;clip-rule:evenodd;fill:#314A52;}
	.st3{fill:#FFFFFF;}
	.st4{fill-rule:evenodd;clip-rule:evenodd;fill:#ACBDC5;}
</style><g id="Pinterest"><circle class="st0" cx="32" cy="32" r="30"/><path class="st1" d="M19,7.2C10.1,11.9,4,21.2,4,32c0,15.5,12.5,20,28,20c15.5,0,28-4.5,28-20h2c0,11.4-4,21.5-13,27.1   C44.1,62.2,38.2,64,32,64C14.3,64,0,49.7,0,32C0,20,6.7,9.5,16.5,4L19,7.2z"/><path class="st2" d="M16,4.3C23.3,0,32.1-1.1,40.3,1.1C48.5,3.3,55.5,8.7,59.7,16c4.2,7.3,5.4,16.1,3.2,24.3   c-2.2,8.2-7.6,15.2-14.9,19.4l-2-3.5c6.4-3.7,11.1-9.8,13-17C61,32.1,60,24.4,56.2,18c-3.7-6.4-9.8-11.1-17-13   C32.1,3,24.4,4,18,7.8L16,4.3z"/><path class="st3" d="M26.7,53c0.9-3.3,1.8-7,1.8-7c0.5,1.3,2.6,4,7,4c8,0,16.5-7,16.5-19c0-11-8.5-19-20-19s-20,8.5-20,19   c0,7.1,3.9,11,6.5,12.5c0.5,0.3,1.1,0,1.3-0.6l1-3.4c0.1-0.4,0-0.7-0.2-1c-1.1-1.3-2.6-4-2.6-7.6c0-5.5,4.5-13,14-13s12,7,12,13   s-2.5,13.5-8.5,13.5s-5.5-5-4-8.5c1.6-3.8,4-12-2.5-12c-4,0-6,7-4.5,12c-1,4.1-3.1,11.6-4,16L26.7,53z"/><path class="st4" d="M22.7,62.6c-0.9-0.3-1.8-0.6-2.7-0.9V55c0-0.7,0.3-2.2,0.7-4c2,0.4,4.1,0.7,6.3,0.9c-0.3,1.3-0.7,2.6-1,3.7   C25.8,56.1,23.8,60.4,22.7,62.6z"/></g></svg>