<?xml version="1.0" ?><svg id="Layer_1" style="enable-background:new 0 0 64 64;" version="1.1" viewBox="0 0 64 64" xml:space="preserve" xmlns="http://www.w3.org/2000/svg" xmlns:xlink="http://www.w3.org/1999/xlink"><style type="text/css">
	.st0{fill:#57CEF3;}
	.st1{fill:#2787F5;}
	.st2{fill:#FFFFFF;}
	.st3{fill:#ACBDC5;}
	.st4{fill-rule:evenodd;clip-rule:evenodd;fill:#314A52;}
</style><g id="VK"><path class="st0" d="M3,15C3,8.4,8.4,3,15,3h34c6.6,0,12,5.4,12,12v34c0,6.6-5.4,12-12,12H15C8.4,61,3,55.6,3,49V15z"/><path class="st1" d="M21,0.1c-7.1,0.2-12,0.8-15.6,4C4.9,4.5,4.5,4.9,4.1,5.3c-2.2,2.4-3.1,5.4-3.6,9.2C0,18.2,0,22.9,0,28.9v6.2   c0,6,0,10.7,0.5,14.4c0.5,3.8,1.5,6.7,3.6,9.2c0.4,0.4,0.8,0.9,1.2,1.2c2.4,2.2,5.4,3.1,9.2,3.6C18.2,64,22.9,64,28.9,64H35   c3.9,0,7.2,0,10.1-0.1L54,61l7-7V20h-1c0,12.2-7.7,22.8-19,28.2c-3.5,2.3-9.8,3.8-17,3.8c-10.3,0-18.8-3.1-19.9-7.1   C4,42.1,4,38.9,4,35v-6c0-6.2,0-10.6,0.4-14c0.4-3.4,1.2-5.4,2.6-7C7.4,7.7,7.7,7.4,8,7.1c2.4-2.1,5.9-2.8,13.1-3L21,0.1z"/><path class="st2" d="M26.4,33.7c-2.4-3-5.3-8-6.7-12.9c-0.1-0.4-0.5-0.8-1-0.8h-5.2c-0.8,0-1.5,0.7-1.5,1.5C12,24,19.5,44,32,44h3   c0.6,0,1-0.4,1-1v-5c0-0.7,0.6-1.1,1.2-0.9c2.6,1.1,5,3.3,6.7,5.9c0.4,0.6,1,1,1.8,1h4.8c0.8,0,1.5-0.7,1.5-1.5   c0-1.8-4-6.4-6.7-8.8c-0.4-0.4-0.5-1.1-0.1-1.5c2.6-3,6.7-8.9,6.7-10.7c0-0.8-0.7-1.5-1.5-1.5h-5.6c-0.5,0-1,0.4-1.1,0.9   c-0.6,2.7-3.1,7.5-6.4,10.4c-0.6,0.5-1.5,0.1-1.5-0.7V21c0-0.6-0.4-1-1-1h-8c-0.6,0-1,0.4-1,1c0,0.3,0.1,0.6,0.4,0.8   c1,0.8,1.6,1.9,1.6,3.2v8.1C28,34,27,34.4,26.4,33.7z"/><path class="st3" d="M47.8,44h2.7c0.8,0,1.5-0.7,1.5-1.5c0-0.4-0.2-1-0.6-1.7C50.3,41.9,49.1,43,47.8,44z"/><path class="st4" d="M49,4.4C45.6,4,41.2,4,35,4h-6c-3.4,0-6.3,0-8.8,0.1l-0.1-4C22.7,0,25.6,0,29,0h6.1c6,0,10.7,0,14.4,0.5   c3.8,0.5,6.7,1.5,9.2,3.6c0.4,0.4,0.9,0.8,1.2,1.2c2.2,2.4,3.1,5.4,3.6,9.2C64,18.2,64,22.9,64,28.9v6.2c0,6,0,10.7-0.5,14.4   c-0.5,3.8-1.5,6.7-3.6,9.2c-0.4,0.4-0.8,0.9-1.2,1.2c-3.4,3.1-8,3.8-14.5,4l-0.1-4c6.5-0.2,9.7-1,12-3c0.3-0.3,0.6-0.6,0.9-0.9   c1.4-1.6,2.2-3.6,2.6-7C60,45.6,60,41.2,60,35v-6c0-6.2,0-10.6-0.4-14c-0.4-3.4-1.2-5.4-2.6-7c-0.3-0.3-0.6-0.6-0.9-0.9   C54.4,5.7,52.4,4.9,49,4.4z"/></g></svg>